<?xml version="1.0" encoding="UTF-8"?>
<svg width="72px" height="72px" viewBox="0 0 72 72" version="1.1" xmlns="http://www.w3.org/2000/svg" xmlns:xlink="http://www.w3.org/1999/xlink">
    <title>Icons/Brand/Academy</title>
    <defs>
        <linearGradient x1="32.5154577%" y1="41.3068923%" x2="85.6536385%" y2="59.9953429%" id="linearGradient-1">
            <stop stop-color="#748CFB" offset="0%"></stop>
            <stop stop-color="#3A54CF" offset="100%"></stop>
        </linearGradient>
        <linearGradient x1="-1.97272754e-12%" y1="-3.88578059e-14%" x2="50%" y2="100%" id="linearGradient-2">
            <stop stop-color="#C7D1FF" offset="0%"></stop>
            <stop stop-color="#8396EB" offset="100%"></stop>
        </linearGradient>
    </defs>
    <g id="Icons/Brand/Academy" stroke="none" stroke-width="1" fill="none" fill-rule="evenodd">
        <path d="M10.2737236,-2.22873901e-15 L61.7262764,4.1507073e-16 C65.2986739,-2.41168047e-16 66.5941116,0.371960754 67.9001267,1.07042529 C69.2061418,1.76888983 70.2311102,2.79385815 70.9295747,4.09987329 C71.6280392,5.40588842 72,6.70132608 72,10.2737236 L72,61.7262764 C72,65.2986739 71.6280392,66.5941116 70.9295747,67.9001267 C70.2311102,69.2061418 69.2061418,70.2311102 67.9001267,70.9295747 C66.5941116,71.6280392 65.2986739,72 61.7262764,72 L10.2737236,72 C6.70132608,72 5.40588842,71.6280392 4.09987329,70.9295747 C2.79385815,70.2311102 1.76888983,69.2061418 1.07042529,67.9001267 C0.371960754,66.5941116 1.2145722e-15,65.2986739 -2.0903821e-15,61.7262764 L2.7671382e-16,10.2737236 C-1.60778698e-16,6.70132608 0.371960754,5.40588842 1.07042529,4.09987329 C1.76888983,2.79385815 2.79385815,1.76888983 4.09987329,1.07042529 C5.40588842,0.371960754 6.70132608,1.29496155e-15 10.2737236,-2.22873901e-15 Z" id="Rectangle" fill-rule="nonzero"></path>
        <path d="M19,30 L51,30 L51,46.6685052 C51,47.7305167 50.3636266,48.6891361 49.3849144,49.1014356 L38.3855869,53.7350943 C36.4620455,54.5454197 34.2963867,54.563659 32.3594699,53.7858468 L20.6562087,49.0861403 C19.6556649,48.6843496 19,47.7144963 19,46.6362924 L19,30 L19,30 Z" id="Rectangle" fill="#BAC6FB" fill-rule="nonzero"></path>
        <path d="M7.33494689,29.7476295 L33.1839558,17.1304831 C34.645574,16.4170535 36.354426,16.4170535 37.8160442,17.1304831 L63.6650531,29.7476295 C64.3201909,30.0674084 64.592053,30.8577347 64.272274,31.5128725 C64.14953,31.7643407 63.9500472,31.9702964 63.7026255,32.1010053 L37.9663336,45.6970755 C36.4231626,46.512308 34.5768374,46.512308 33.0336664,45.6970755 L7.29737454,32.1010053 C6.65277876,31.7604757 6.40628443,30.9618738 6.74681404,30.317278 C6.877523,30.0698562 7.08347866,29.8703735 7.33494689,29.7476295 Z" id="Path" fill="url(#linearGradient-1)" fill-rule="nonzero"></path>
        <path d="M32.1194085,28.7927114 C32.4225858,28.112626 33.2081789,27.8123168 33.87408,28.1219521 L49.2241457,35.2595317 C49.6966922,35.4792597 50,35.9606571 50,36.4909353 C50,41.9282951 50,44.646975 50,44.646975 C50,45.3942301 49.4068645,46 48.6751947,46 C47.943525,46 47.3503895,45.3942301 47.3503895,44.646975 C47.3503895,44.646975 47.3500988,42.2181692 47.3495174,37.3605577 L32.776178,30.5847592 C32.1578413,30.2972407 31.860135,29.5849012 32.063501,28.9400909 L32.1194085,28.7927114 Z" id="Path-5" fill="url(#linearGradient-2)" fill-rule="nonzero"></path>
    </g>
</svg>