<?xml version="1.0" encoding="UTF-8"?>
<svg width="72px" height="72px" viewBox="0 0 72 72" version="1.1" xmlns="http://www.w3.org/2000/svg" xmlns:xlink="http://www.w3.org/1999/xlink">
    <title>Icons/Brand/Business</title>
    <defs>
        <linearGradient x1="32.5154577%" y1="32.5056498%" x2="85.6536385%" y2="70.1150194%" id="linearGradient-1">
            <stop stop-color="#748CFB" offset="0%"></stop>
            <stop stop-color="#3A54CF" offset="100%"></stop>
        </linearGradient>
        <linearGradient x1="-1.97272754e-12%" y1="41.6322314%" x2="50%" y2="58.3677686%" id="linearGradient-2">
            <stop stop-color="#C7D1FF" offset="0%"></stop>
            <stop stop-color="#8396EB" offset="100%"></stop>
        </linearGradient>
    </defs>
    <g id="Icons/Brand/Business" stroke="none" stroke-width="1" fill="none" fill-rule="evenodd">
        <path d="M10.2737236,-2.22873901e-15 L61.7262764,4.1507073e-16 C65.2986739,-2.41168047e-16 66.5941116,0.371960754 67.9001267,1.07042529 C69.2061418,1.76888983 70.2311102,2.79385815 70.9295747,4.09987329 C71.6280392,5.40588842 72,6.70132608 72,10.2737236 L72,61.7262764 C72,65.2986739 71.6280392,66.5941116 70.9295747,67.9001267 C70.2311102,69.2061418 69.2061418,70.2311102 67.9001267,70.9295747 C66.5941116,71.6280392 65.2986739,72 61.7262764,72 L10.2737236,72 C6.70132608,72 5.40588842,71.6280392 4.09987329,70.9295747 C2.79385815,70.2311102 1.76888983,69.2061418 1.07042529,67.9001267 C0.371960754,66.5941116 1.2145722e-15,65.2986739 -2.0903821e-15,61.7262764 L2.7671382e-16,10.2737236 C-1.60778698e-16,6.70132608 0.371960754,5.40588842 1.07042529,4.09987329 C1.76888983,2.79385815 2.79385815,1.76888983 4.09987329,1.07042529 C5.40588842,0.371960754 6.70132608,1.29496155e-15 10.2737236,-2.22873901e-15 Z" id="Rectangle" fill-rule="nonzero"></path>
        <path d="M24.2555408,25 L46.7444592,25 C50.3105342,25 51.6036791,25.3713024 52.9073828,26.0685308 C54.2110865,26.7657592 55.2342408,27.7889135 55.9314692,29.0926172 C56.6286976,30.3963209 57,31.6894658 57,35.2555408 L57,45.7444592 C57,49.3105342 56.6286976,50.6036791 55.9314692,51.9073828 C55.2342408,53.2110865 54.2110865,54.2342408 52.9073828,54.9314692 C51.6036791,55.6286976 50.3105342,56 46.7444592,56 L24.2555408,56 C20.6894658,56 19.3963209,55.6286976 18.0926172,54.9314692 C16.7889135,54.2342408 15.7657592,53.2110865 15.0685308,51.9073828 C14.3713024,50.6036791 14,49.3105342 14,45.7444592 L14,35.2555408 C14,31.6894658 14.3713024,30.3963209 15.0685308,29.0926172 C15.7657592,27.7889135 16.7889135,26.7657592 18.0926172,26.0685308 C19.3963209,25.3713024 20.6894658,25 24.2555408,25 Z" id="Rectangle" fill="url(#linearGradient-1)" fill-rule="nonzero"></path>
        <path d="M35.4332446,50.3289502 C35.7892733,50.3289502 36.0562949,50.0819178 36.0562949,49.6889118 L36.0562949,48.27409 C38.8933989,48.0719726 41.1185785,46.5224059 41.1185785,43.7601349 C41.1185785,41.3684124 39.5164492,40.155708 36.590338,39.4707546 L36.0562949,39.3360097 L36.0562949,34.6536234 C37.2912696,34.8108258 38.0923342,35.4845505 38.559622,36.6523399 C38.7932658,37.1913196 39.1604205,37.5169532 39.7389672,37.5169532 C40.3842693,37.5169532 40.8293052,37.1014896 40.8293052,36.4951374 C40.8293052,36.2930201 40.8070534,36.1133601 40.7514239,35.9224715 C40.2285067,34.0697287 38.4261112,32.8008806 36.0562949,32.609992 L36.0562949,31.1839415 C36.0562949,30.7909354 35.7892733,30.5439031 35.4332446,30.5439031 C35.06609,30.5439031 34.7990684,30.7909354 34.7990684,31.1839415 L34.7990684,32.609992 C31.9953421,32.8233381 29.9926805,34.4739635 29.9926805,37.0004309 C29.9926805,39.279866 31.5169285,40.5599428 34.3429066,41.2224387 L34.7990684,41.3347262 L34.7990684,46.2304586 C33.208065,46.0620274 32.4181262,45.2760153 32.0509716,44.2205134 C31.8173277,43.62539 31.4279213,43.3446714 30.8938782,43.3446714 C30.2151984,43.3446714 29.7812884,43.7825924 29.7812884,44.4226308 C29.7812884,44.6022907 29.8146661,44.8044081 29.8702956,44.9952967 C30.4043387,46.870497 32.3402449,48.0944301 34.7990684,48.27409 L34.7990684,49.6889118 C34.7990684,50.0819178 35.06609,50.3289502 35.4332446,50.3289502 Z M32.3513708,36.8095423 C32.3513708,35.7764978 33.1969391,34.8445121 34.7990684,34.6536234 L34.7990684,39.0440624 C33.0189247,38.5836838 32.3513708,37.831358 32.3513708,36.8095423 Z M38.7598881,43.9847098 C38.7598881,45.1861854 37.9588235,46.0957137 36.0562949,46.2416873 L36.0562949,41.6379022 C38.1257119,42.131967 38.7598881,42.8169204 38.7598881,43.9847098 Z" id="Shape" fill="#FFFFFF" fill-rule="nonzero"></path>
        <path d="M39.505452,15 C41.1723083,15 42.400286,15.2604841 43.5302207,15.8536513 C44.6464208,16.4396082 45.5333828,17.3102362 46.1303331,18.4058805 C46.7346288,19.5150066 47,20.7203702 47,22.3565299 L47,23.2397525 C47,23.503498 46.9931044,23.7560494 46.9790051,23.9988081 L43.3045853,24 C43.32388,23.772993 43.3333333,23.5217833 43.3333333,23.2397525 L43.3333333,22.3565299 C43.3333333,21.2781484 43.1951238,20.650376 42.8970181,20.1032318 C42.6418004,19.6348045 42.2782405,19.2779399 41.8010249,19.0274223 C41.2436156,18.7348064 40.6040654,18.5991421 39.505452,18.5991421 L32.494548,18.5991421 C31.3959346,18.5991421 30.7563844,18.7348064 30.1989751,19.0274223 C29.7217595,19.2779399 29.3581996,19.6348045 29.1029819,20.1032318 C28.8048762,20.650376 28.6666667,21.2781484 28.6666667,22.3565299 L28.6666667,23.2397525 C28.6666667,23.5217833 28.67612,23.772993 28.6954147,24 L25.0209949,23.9988081 C25.0068956,23.7560494 25,23.503498 25,23.2397525 L25,22.3565299 C25,20.7203702 25.2653712,19.5150066 25.8696669,18.4058805 C26.4666172,17.3102362 27.3535792,16.4396082 28.4697793,15.8536513 C29.599714,15.2604841 30.8276917,15 32.494548,15 L39.505452,15 Z" id="Path" fill="url(#linearGradient-2)" fill-rule="nonzero"></path>
    </g>
</svg>