<?xml version="1.0" encoding="UTF-8"?>
<svg width="72px" height="72px" viewBox="0 0 72 72" version="1.1" xmlns="http://www.w3.org/2000/svg" xmlns:xlink="http://www.w3.org/1999/xlink">
    <title>Icons/Brand/API</title>
    <defs>
        <linearGradient x1="-1.97272754e-12%" y1="48.9856343%" x2="50%" y2="51.0143657%" id="linearGradient-1">
            <stop stop-color="#C7D1FF" offset="0%"></stop>
            <stop stop-color="#8396EB" offset="100%"></stop>
        </linearGradient>
        <linearGradient x1="32.5154577%" y1="36.212952%" x2="85.6536385%" y2="65.85236%" id="linearGradient-2">
            <stop stop-color="#748CFB" offset="0%"></stop>
            <stop stop-color="#3A54CF" offset="100%"></stop>
        </linearGradient>
        <linearGradient x1="-1.97272754e-12%" y1="48.72%" x2="50%" y2="51.28%" id="linearGradient-3">
            <stop stop-color="#C7D1FF" offset="0%"></stop>
            <stop stop-color="#8396EB" offset="100%"></stop>
        </linearGradient>
    </defs>
    <g id="Icons/Brand/API" stroke="none" stroke-width="1" fill="none" fill-rule="evenodd">
        <path d="M10.2737236,-2.22873901e-15 L61.7262764,4.1507073e-16 C65.2986739,-2.41168047e-16 66.5941116,0.371960754 67.9001267,1.07042529 C69.2061418,1.76888983 70.2311102,2.79385815 70.9295747,4.09987329 C71.6280392,5.40588842 72,6.70132608 72,10.2737236 L72,61.7262764 C72,65.2986739 71.6280392,66.5941116 70.9295747,67.9001267 C70.2311102,69.2061418 69.2061418,70.2311102 67.9001267,70.9295747 C66.5941116,71.6280392 65.2986739,72 61.7262764,72 L10.2737236,72 C6.70132608,72 5.40588842,71.6280392 4.09987329,70.9295747 C2.79385815,70.2311102 1.76888983,69.2061418 1.07042529,67.9001267 C0.371960754,66.5941116 1.2145722e-15,65.2986739 -2.0903821e-15,61.7262764 L2.7671382e-16,10.2737236 C-1.60778698e-16,6.70132608 0.371960754,5.40588842 1.07042529,4.09987329 C1.76888983,2.79385815 2.79385815,1.76888983 4.09987329,1.07042529 C5.40588842,0.371960754 6.70132608,1.29496155e-15 10.2737236,-2.22873901e-15 Z" id="Rectangle" fill-rule="nonzero"></path>
        <path d="M55.8722296,16 C57.6552671,16 58.3018396,16.1856512 58.9536914,16.5342654 C59.6055433,16.8828796 60.1171204,17.3944567 60.4657346,18.0463086 C60.8143488,18.6981604 61,19.3447329 61,21.1277704 L61,23.1216772 L11,23.1216772 L11,21.1277704 C11,19.3447329 11.1856512,18.6981604 11.5342654,18.0463086 C11.8828796,17.3944567 12.3944567,16.8828796 13.0463086,16.5342654 C13.6638525,16.2039993 14.276658,16.0199937 15.855516,16.0015395 L55.8722296,16 Z" id="Path" fill="url(#linearGradient-1)" fill-rule="nonzero"></path>
        <path d="M61,24 L61,50.8532526 C61,52.6428888 60.8143488,53.2918541 60.4657346,53.9461184 C60.1171204,54.6003826 59.6055433,55.113853 58.9536914,55.4637574 C58.3018396,55.8136617 57.6552671,56 55.8722296,56 L16.1277704,56 C14.3447329,56 13.6981604,55.8136617 13.0463086,55.4637574 C12.3944567,55.113853 11.8828796,54.6003826 11.5342654,53.9461184 C11.2039993,53.3262891 11.0199937,52.7112156 11.0015395,51.1265145 L11,24 L61,24 Z M43.5017744,29.1949558 C43.0359273,29.514876 42.8759893,30.1304909 43.1001507,30.639221 L43.1892044,30.8042868 L47.520367,37.5 L43.1892044,44.1957132 C42.8787222,44.6757211 42.9610273,45.3073447 43.3579292,45.6880047 L43.5017744,45.8050442 C43.9676215,46.1249644 44.5806115,46.0401574 44.9500416,45.6311904 L45.0636283,45.4829727 L49.8109155,38.1436298 C50.0270121,37.8095427 50.057883,37.388795 49.9035283,37.0299477 L49.8109155,36.8563702 L45.0636283,29.5170273 C44.7186481,28.9836852 44.0193823,28.8394889 43.5017744,29.1949558 Z M26.9363717,29.5170273 L22.1890845,36.8563702 L22.0964717,37.0299477 C21.942117,37.388795 21.9729879,37.8095427 22.1890845,38.1436298 L26.9363717,45.4829727 L27.0499584,45.6311904 C27.4193885,46.0401574 28.0323785,46.1249644 28.4982256,45.8050442 L28.6420708,45.6880047 C29.0389727,45.3073447 29.1212778,44.6757211 28.8107956,44.1957132 L24.479633,37.5 L28.8107956,30.8042868 L28.8998493,30.639221 C29.1240107,30.1304909 28.9640727,29.514876 28.4982256,29.1949558 C27.9806177,28.8394889 27.2813519,28.9836852 26.9363717,29.5170273 Z M36.7099837,29.8793218 L33.0349759,44.5577468 L33.005547,44.7271703 C32.9501528,45.2901816 33.3145141,45.823758 33.8806161,45.9650755 C34.5033283,46.1205247 35.1343383,45.7424752 35.2900163,45.1206782 L38.9650241,30.4422532 L38.994453,30.2728297 C39.0498472,29.7098184 38.6854859,29.176242 38.1193839,29.0349245 C37.4966717,28.8794753 36.8656617,29.2575248 36.7099837,29.8793218 Z" id="Combined-Shape" fill="url(#linearGradient-2)" fill-rule="nonzero"></path>
        <path d="M15,16 L57,16 C59.209139,16 61,17.790861 61,20 L61,24 L61,24 L11,24 L11,20 C11,17.790861 12.790861,16 15,16 Z" id="Rectangle" fill="url(#linearGradient-3)" fill-rule="nonzero"></path>
        <rect id="Rectangle" fill="#FFFFFF" fill-rule="nonzero" x="13" y="19" width="15" height="2" rx="1"></rect>
    </g>
</svg>