<?xml version="1.0" encoding="UTF-8"?>
<svg width="72px" height="72px" viewBox="0 0 72 72" version="1.1" xmlns="http://www.w3.org/2000/svg" xmlns:xlink="http://www.w3.org/1999/xlink">
    <title>Icons/Brand/Help Center</title>
    <defs>
        <linearGradient x1="32.5154577%" y1="16.3402148%" x2="85.6536385%" y2="88.7020508%" id="linearGradient-1">
            <stop stop-color="#748CFB" offset="0%"></stop>
            <stop stop-color="#3A54CF" offset="100%"></stop>
        </linearGradient>
        <linearGradient x1="-1.97272754e-12%" y1="0.955291221%" x2="50%" y2="99.0447088%" id="linearGradient-2">
            <stop stop-color="#C7D1FF" offset="0%"></stop>
            <stop stop-color="#8396EB" offset="100%"></stop>
        </linearGradient>
    </defs>
    <g id="Icons/Brand/Help-Center" stroke="none" stroke-width="1" fill="none" fill-rule="evenodd">
        <path d="M10.2737236,-2.22873901e-15 L61.7262764,4.1507073e-16 C65.2986739,-2.41168047e-16 66.5941116,0.371960754 67.9001267,1.07042529 C69.2061418,1.76888983 70.2311102,2.79385815 70.9295747,4.09987329 C71.6280392,5.40588842 72,6.70132608 72,10.2737236 L72,61.7262764 C72,65.2986739 71.6280392,66.5941116 70.9295747,67.9001267 C70.2311102,69.2061418 69.2061418,70.2311102 67.9001267,70.9295747 C66.5941116,71.6280392 65.2986739,72 61.7262764,72 L10.2737236,72 C6.70132608,72 5.40588842,71.6280392 4.09987329,70.9295747 C2.79385815,70.2311102 1.76888983,69.2061418 1.07042529,67.9001267 C0.371960754,66.5941116 1.2145722e-15,65.2986739 -2.0903821e-15,61.7262764 L2.7671382e-16,10.2737236 C-1.60778698e-16,6.70132608 0.371960754,5.40588842 1.07042529,4.09987329 C1.76888983,2.79385815 2.79385815,1.76888983 4.09987329,1.07042529 C5.40588842,0.371960754 6.70132608,1.29496155e-15 10.2737236,-2.22873901e-15 Z" id="Rectangle" fill-rule="nonzero"></path>
        <g id="Group" transform="translate(12.000000, 12.000000)" fill-rule="nonzero">
            <path d="M24,0 C37.254834,0 48,10.745166 48,24 C48,37.254834 37.254834,48 24,48 C10.745166,48 0,37.254834 0,24 C0,10.745166 10.745166,0 24,0 Z M24,13 C17.9248678,13 13,17.9248678 13,24 C13,30.0751322 17.9248678,35 24,35 C30.0751322,35 35,30.0751322 35,24 C35,17.9248678 30.0751322,13 24,13 Z" id="Combined-Shape" fill="url(#linearGradient-1)"></path>
            <path d="M34.0498995,28.4788112 L43.5275959,37.9557093 C41.5690094,40.691391 39.0498358,42.9983901 36.1379941,44.7087874 L26.2070147,34.7785339 C29.7199484,34.0630526 32.6241071,31.6732813 34.0498995,28.4788112 Z M20.9888953,34.5827879 L11.2414255,44.3315146 C8.38888116,42.5376937 5.94045886,40.160174 4.06370911,37.366506 L13.6621812,27.7676735 C14.8624101,31.0600588 17.5906402,33.6177557 20.9888953,34.5827879 Z M10.0442907,4.47240408 L19.5211888,13.9501005 C16.3267187,15.3758929 13.9369474,18.2800516 13.2214661,21.7929853 L3.2912126,11.8620059 C5.00160985,8.95016425 7.30860897,6.43099055 10.0442907,4.47240408 Z M44.3311194,11.2407972 L34.5827879,20.9888953 C33.6176584,17.5902976 31.0595431,14.8618601 27.7666778,13.6618183 L37.3655027,4.06303514 C40.1593996,5.93973488 42.5371298,8.38818015 44.3311194,11.2407972 Z" id="Combined-Shape" fill="url(#linearGradient-2)"></path>
        </g>
    </g>
</svg>