<?xml version="1.0" encoding="UTF-8"?>
<svg width="72px" height="72px" viewBox="0 0 72 72" version="1.1" xmlns="http://www.w3.org/2000/svg" xmlns:xlink="http://www.w3.org/1999/xlink">
    <title>Icons/Brand/Press Release</title>
    <defs>
        <linearGradient x1="-1.97272754e-12%" y1="41.6322314%" x2="50%" y2="58.3677686%" id="linearGradient-1">
            <stop stop-color="#C7D1FF" offset="0%"></stop>
            <stop stop-color="#8396EB" offset="100%"></stop>
        </linearGradient>
        <linearGradient x1="-1.97272754e-12%" y1="9.87413194%" x2="50%" y2="90.1258681%" id="linearGradient-2">
            <stop stop-color="#C7D1FF" offset="0%"></stop>
            <stop stop-color="#8396EB" offset="100%"></stop>
        </linearGradient>
        <linearGradient x1="38.6999171%" y1="16.3402148%" x2="73.0425861%" y2="88.7020508%" id="linearGradient-3">
            <stop stop-color="#748CFB" offset="0%"></stop>
            <stop stop-color="#3A54CF" offset="100%"></stop>
        </linearGradient>
        <linearGradient x1="-1.97272754e-12%" y1="-3.88578059e-14%" x2="50%" y2="100%" id="linearGradient-4">
            <stop stop-color="#C7D1FF" offset="0%"></stop>
            <stop stop-color="#8396EB" offset="100%"></stop>
        </linearGradient>
    </defs>
    <g id="Icons/Brand/Press-Release" stroke="none" stroke-width="1" fill="none" fill-rule="evenodd">
        <path d="M10.2737236,-2.22873901e-15 L61.7262764,4.1507073e-16 C65.2986739,-2.41168047e-16 66.5941116,0.371960754 67.9001267,1.07042529 C69.2061418,1.76888983 70.2311102,2.79385815 70.9295747,4.09987329 C71.6280392,5.40588842 72,6.70132608 72,10.2737236 L72,61.7262764 C72,65.2986739 71.6280392,66.5941116 70.9295747,67.9001267 C70.2311102,69.2061418 69.2061418,70.2311102 67.9001267,70.9295747 C66.5941116,71.6280392 65.2986739,72 61.7262764,72 L10.2737236,72 C6.70132608,72 5.40588842,71.6280392 4.09987329,70.9295747 C2.79385815,70.2311102 1.76888983,69.2061418 1.07042529,67.9001267 C0.371960754,66.5941116 1.2145722e-15,65.2986739 -2.0903821e-15,61.7262764 L2.7671382e-16,10.2737236 C-1.60778698e-16,6.70132608 0.371960754,5.40588842 1.07042529,4.09987329 C1.76888983,2.79385815 2.79385815,1.76888983 4.09987329,1.07042529 C5.40588842,0.371960754 6.70132608,1.29496155e-15 10.2737236,-2.22873901e-15 Z" id="Rectangle" fill-rule="nonzero"></path>
        <path d="M39.505452,15 C41.1723083,15 42.400286,15.2604841 43.5302207,15.8536513 C44.6464208,16.4396082 45.5333828,17.3102362 46.1303331,18.4058805 C46.7346288,19.5150066 47,20.7203702 47,22.3565299 L47,23.2397525 C47,23.503498 46.9931044,23.7560494 46.9790051,23.9988081 L43.3045853,24 C43.32388,23.772993 43.3333333,23.5217833 43.3333333,23.2397525 L43.3333333,22.3565299 C43.3333333,21.2781484 43.1951238,20.650376 42.8970181,20.1032318 C42.6418004,19.6348045 42.2782405,19.2779399 41.8010249,19.0274223 C41.2436156,18.7348064 40.6040654,18.5991421 39.505452,18.5991421 L32.494548,18.5991421 C31.3959346,18.5991421 30.7563844,18.7348064 30.1989751,19.0274223 C29.7217595,19.2779399 29.3581996,19.6348045 29.1029819,20.1032318 C28.8048762,20.650376 28.6666667,21.2781484 28.6666667,22.3565299 L28.6666667,23.2397525 C28.6666667,23.5217833 28.67612,23.772993 28.6954147,24 L25.0209949,23.9988081 C25.0068956,23.7560494 25,23.503498 25,23.2397525 L25,22.3565299 C25,20.7203702 25.2653712,19.5150066 25.8696669,18.4058805 C26.4666172,17.3102362 27.3535792,16.4396082 28.4697793,15.8536513 C29.599714,15.2604841 30.8276917,15 32.494548,15 L39.505452,15 Z" id="Path" fill="url(#linearGradient-1)" fill-rule="nonzero"></path>
        <path d="M13.7038178,19 L45.5368901,19 C47.1578534,19 47.7471653,19.1448078 48.3565452,19.4285822 C48.965925,19.7123567 49.4630494,20.1350979 49.8410493,20.6909646 C50.2190492,21.2468313 50.4566636,21.8052194 50.7171129,23.405122 L56.2442112,57.3572976 C56.599166,59.5377338 55.1193208,61.5930743 52.9388846,61.9480291 C52.7263981,61.9826199 52.5114658,62 52.2961822,62 L20.4631099,62 C18.8421466,62 18.2528347,61.8551922 17.6434548,61.5714178 C17.034075,61.2876433 16.5369506,60.8649021 16.1589507,60.3090354 C15.7809508,59.7531687 15.5433364,59.1947806 15.2828871,57.594878 L9.75578876,23.6427024 C9.40083403,21.4622662 10.8806792,19.4069257 13.0611154,19.0519709 C13.2736019,19.0173801 13.4885342,19 13.7038178,19 Z" id="Rectangle" fill="url(#linearGradient-2)" fill-rule="nonzero"></path>
        <path d="M21.1277704,11 L51.8722296,11 C53.6552671,11 54.3018396,11.1856512 54.9536914,11.5342654 C55.6055433,11.8828796 56.1171204,12.3944567 56.4657346,13.0463086 C56.8143488,13.6981604 57,14.3447329 57,16.1277704 L57,56.8722296 C57,58.6552671 56.8143488,59.3018396 56.4657346,59.9536914 C56.1171204,60.6055433 55.6055433,61.1171204 54.9536914,61.4657346 C54.3018396,61.8143488 53.6552671,62 51.8722296,62 L21.1277704,62 C19.3447329,62 18.6981604,61.8143488 18.0463086,61.4657346 C17.3944567,61.1171204 16.8828796,60.6055433 16.5342654,59.9536914 C16.1856512,59.3018396 16,58.6552671 16,56.8722296 L16,16.1277704 C16,14.3447329 16.1856512,13.6981604 16.5342654,13.0463086 C16.8828796,12.3944567 17.3944567,11.8828796 18.0463086,11.5342654 C18.6981604,11.1856512 19.3447329,11 21.1277704,11 Z" id="Rectangle" fill="url(#linearGradient-3)" fill-rule="nonzero"></path>
        <path d="M34.4846774,47 L36.0068977,47 C36.6567632,47 37.1835834,47.5268201 37.1835834,48.1766857 C37.1835834,48.3754879 37.1332142,48.5710492 37.0371774,48.7451159 L32.950105,56.1529346 C32.7665654,56.4856003 32.6810836,56.5940512 32.5672114,56.6994265 C32.4533392,56.8048019 32.3260593,56.8799452 32.178786,56.9287448 C32.0315126,56.9775443 31.8952611,57 31.5153226,57 L29.9931023,57 C29.3432368,57 28.8164166,56.4731799 28.8164166,55.8233143 C28.8164166,55.6245121 28.8667858,55.4289508 28.9628226,55.2548841 L33.049895,47.8470654 C33.2334346,47.5143997 33.3189164,47.4059488 33.4327886,47.3005735 C33.5466608,47.1951981 33.6739407,47.1200548 33.821214,47.0712552 C33.9684874,47.0224557 34.1047389,47 34.4846774,47 Z" id="Rectangle" fill="#FFFFFF" fill-rule="nonzero"></path>
        <path d="M26.4846774,47 L28.0068977,47 C28.6567632,47 29.1835834,47.5268201 29.1835834,48.1766857 C29.1835834,48.3754879 29.1332142,48.5710492 29.0371774,48.7451159 L24.950105,56.1529346 C24.7665654,56.4856003 24.6810836,56.5940512 24.5672114,56.6994265 C24.4533392,56.8048019 24.3260593,56.8799452 24.178786,56.9287448 C24.0315126,56.9775443 23.8952611,57 23.5153226,57 L21.9931023,57 C21.3432368,57 20.8164166,56.4731799 20.8164166,55.8233143 C20.8164166,55.6245121 20.8667858,55.4289508 20.9628226,55.2548841 L25.049895,47.8470654 C25.2334346,47.5143997 25.3189164,47.4059488 25.4327886,47.3005735 C25.5466608,47.1951981 25.6739407,47.1200548 25.821214,47.0712552 C25.9684874,47.0224557 26.1047389,47 26.4846774,47 Z" id="Rectangle" fill="url(#linearGradient-4)" fill-rule="nonzero"></path>
        <path d="M39.7246359,36.5 C40.2769206,36.5 40.7246359,36.9477153 40.7246359,37.5 C40.7246359,38.0522847 40.2769206,38.5 39.7246359,38.5 L22,38.5 C21.4477153,38.5 21,38.0522847 21,37.5 C21,36.9477153 21.4477153,36.5 22,36.5 L39.7246359,36.5 Z" id="Path-14" fill="#FFFFFF" fill-rule="nonzero"></path>
        <path d="M51,30.5 C51.5522847,30.5 52,30.9477153 52,31.5 C52,32.0522847 51.5522847,32.5 51,32.5 L22,32.5 C21.4477153,32.5 21,32.0522847 21,31.5 C21,30.9477153 21.4477153,30.5 22,30.5 L51,30.5 Z" id="Path-14" fill="#FFFFFF" fill-rule="nonzero"></path>
        <path d="M51,24.5 C51.5522847,24.5 52,24.9477153 52,25.5 C52,26.0522847 51.5522847,26.5 51,26.5 L22,26.5 C21.4477153,26.5 21,26.0522847 21,25.5 C21,24.9477153 21.4477153,24.5 22,24.5 L51,24.5 Z" id="Path-14" fill="#FFFFFF" fill-rule="nonzero"></path>
        <path d="M51,18.5 C51.5522847,18.5 52,18.9477153 52,19.5 C52,20.0522847 51.5522847,20.5 51,20.5 L22,20.5 C21.4477153,20.5 21,20.0522847 21,19.5 C21,18.9477153 21.4477153,18.5 22,18.5 L51,18.5 Z" id="Path-14" fill="#FFFFFF" fill-rule="nonzero"></path>
    </g>
</svg>