<?xml version="1.0" encoding="UTF-8"?>
<svg width="72px" height="72px" viewBox="0 0 72 72" version="1.1" xmlns="http://www.w3.org/2000/svg" xmlns:xlink="http://www.w3.org/1999/xlink">
    <title>Icons/Brand/VAT/KSA</title>
    <defs>
        <linearGradient x1="32.5154577%" y1="32.6967854%" x2="85.6536385%" y2="69.8952514%" id="linearGradient-1">
            <stop stop-color="#748CFB" offset="0%"></stop>
            <stop stop-color="#3A54CF" offset="100%"></stop>
        </linearGradient>
        <circle id="path-2" cx="12" cy="12" r="11.25"></circle>
        <circle id="path-4" cx="12" cy="12" r="12"></circle>
    </defs>
    <g id="Icons/Brand/VAT/KSA" stroke="none" stroke-width="1" fill="none" fill-rule="evenodd">
        <path d="M10.2737236,-2.22873901e-15 L61.7262764,4.1507073e-16 C65.2986739,-2.41168047e-16 66.5941116,0.371960754 67.9001267,1.07042529 C69.2061418,1.76888983 70.2311102,2.79385815 70.9295747,4.09987329 C71.6280392,5.40588842 72,6.70132608 72,10.2737236 L72,61.7262764 C72,65.2986739 71.6280392,66.5941116 70.9295747,67.9001267 C70.2311102,69.2061418 69.2061418,70.2311102 67.9001267,70.9295747 C66.5941116,71.6280392 65.2986739,72 61.7262764,72 L10.2737236,72 C6.70132608,72 5.40588842,71.6280392 4.09987329,70.9295747 C2.79385815,70.2311102 1.76888983,69.2061418 1.07042529,67.9001267 C0.371960754,66.5941116 1.2145722e-15,65.2986739 -2.0903821e-15,61.7262764 L2.7671382e-16,10.2737236 C-1.60778698e-16,6.70132608 0.371960754,5.40588842 1.07042529,4.09987329 C1.76888983,2.79385815 2.79385815,1.76888983 4.09987329,1.07042529 C5.40588842,0.371960754 6.70132608,1.29496155e-15 10.2737236,-2.22873901e-15 Z" id="Rectangle" fill-rule="nonzero"></path>
        <g id="Brand-Icons-/-Email" transform="translate(7.000000, 17.000000)" fill-rule="nonzero">
            <g id="Group">
                <path d="M8.9735982,-1.26937825e-15 L44.0264018,3.62544108e-16 C47.1467174,-2.10648567e-16 48.2782192,0.324889639 49.41896,0.934964463 C50.5597007,1.54503929 51.4549607,2.4402993 52.0650355,3.58104004 C52.6751104,4.72178078 53,5.85328261 53,8.9735982 L53,29.0264018 C53,32.1467174 52.6751104,33.2782192 52.0650355,34.41896 C51.4549607,35.5597007 50.5597007,36.4549607 49.41896,37.0650355 C48.2782192,37.6751104 47.1467174,38 44.0264018,38 L8.9735982,38 C5.85328261,38 4.72178078,37.6751104 3.58104004,37.0650355 C2.4402993,36.4549607 1.54503929,35.5597007 0.934964463,34.41896 C0.324889639,33.2782192 -3.86464372e-16,32.1467174 6.65138067e-16,29.0264018 L2.41696072e-16,8.9735982 C-1.40432378e-16,5.85328261 0.324889639,4.72178078 0.934964463,3.58104004 C1.54503929,2.4402993 2.4402993,1.54503929 3.58104004,0.934964463 C4.72178078,0.324889639 5.85328261,7.37545317e-16 8.9735982,-1.26937825e-15 Z" id="Rectangle" fill="url(#linearGradient-1)"></path>
                <path d="M10.0745739,12 L13.2386364,21.9460227 L13.3600852,21.9460227 L16.5305398,12 L19.5987216,12 L15.0859375,25.0909091 L11.5191761,25.0909091 L7,12 L10.0745739,12 Z M25.5475852,12 L30.0603693,25.0909091 L27.0944602,25.0909091 L26.1246477,22.105 L21.3976477,22.105 L20.4275568,25.0909091 L17.4616477,25.0909091 L21.9808239,12 L25.5475852,12 Z M38.8856534,12 L38.8856534,14.2819602 L34.8778409,14.2819602 L34.8778409,25.0909091 L32.1420455,25.0909091 L32.1420455,14.2819602 L28.134233,14.2819602 L28.134233,12 L38.8856534,12 Z M23.8153409,14.9914773 L23.7130682,14.9914773 L22.1006477,19.945 L25.4226477,19.945 L23.8153409,14.9914773 Z" id="Combined-Shape" fill="#FFFFFF"></path>
            </g>
        </g>
        <g id="Flags/UAE" transform="translate(48.000000, 24.000000)">
            <mask id="mask-3" fill="white">
                <use xlink:href="#path-2"></use>
            </mask>
            <circle stroke="#F1F2FF" stroke-width="0.52734375" cx="12" cy="12" r="10.9863281"></circle>
            <g id="Flag" mask="url(#mask-3)" fill-rule="nonzero">
                <g transform="translate(-2.250000, 0.000000)">
                    <polygon id="Path" fill="#006C35" points="0 0 29.25 0 29.25 24 0 24"></polygon>
                    <path d="M18.6346029,16.4486491 L18.2537435,16.4486491 C18.2114258,16.5041911 18.1453044,16.5703125 18.1082764,16.5703125 C18.0633138,16.5703125 17.9416504,16.4460042 17.9416504,16.4010417 C17.9416504,16.3666585 17.9998372,16.3005371 18.0527344,16.2582194 L18.0527344,16.15507 L11.1496582,16.15507 C10.2398275,16.15507 9.78755697,16.1471354 9.48339844,15.8429769 L18.0527344,15.8429769 L18.0527344,15.7398275 C18.0024821,15.7001546 17.9416504,15.6313883 17.9416504,15.5970052 C17.9416504,15.5520426 18.0633138,15.4277344 18.1082764,15.4277344 C18.1532389,15.4277344 18.2749023,15.5520426 18.2749023,15.5970052 C18.2749023,15.6313883 18.2140706,15.7001546 18.1638184,15.7398275 L18.1638184,15.8429769 L19.3275553,15.8429769 C19.6396484,15.8429769 19.7666016,15.8694255 19.7666016,16.15507 C19.7666016,16.4592285 19.684611,16.5147705 19.555013,16.5147705 C19.5100505,16.5147705 19.4359945,16.5121257 19.3804525,16.4486491 L18.928182,16.4486491 C18.9037294,16.4883343 18.8457469,16.514245 18.7813924,16.514245 C18.717038,16.514245 18.6590554,16.4883343 18.6346029,16.4486491 L18.6346029,16.4486491 Z M18.928182,16.3534342 L19.3275553,16.3534342 C19.3063965,16.2952474 19.3063965,16.2344157 19.3275553,16.15507 L18.1638184,16.15507 L18.1638184,16.2582194 C18.1929118,16.2793783 18.2325846,16.3243408 18.2537435,16.3534342 L18.6346029,16.3534342 C18.6590554,16.313749 18.717038,16.2878383 18.7813924,16.2878383 C18.8457469,16.2878383 18.9037294,16.313749 18.928182,16.3534342 Z" id="Shape" fill="#FFFFFF"></path>
                    <path d="M19.5867513,11.5979818 C19.6131999,11.6297201 19.629069,11.6588135 19.5841064,11.7117106 C19.5417887,11.7487386 19.5126953,11.7698975 19.4677327,11.8069255 C19.4492188,11.8386637 19.4359945,11.888916 19.4968262,11.9047852 C19.6131999,11.9365234 19.8274333,11.7989909 19.8274333,11.796346 C19.8723958,11.7646077 19.8565267,11.7064209 19.8538818,11.7064209 C19.8274333,11.6799723 19.7718913,11.6958415 19.7348633,11.6905518 C19.7163493,11.6905518 19.7057699,11.6561686 19.7322184,11.6059163 C19.7560221,11.5741781 19.7666016,11.5556641 19.7824707,11.5186361 C19.7983398,11.4816081 19.7824707,11.4551595 19.7189941,11.4340007 C19.6528727,11.4234212 19.6264242,11.4287109 19.555013,11.4340007 C19.5153402,11.4419352 19.5021159,11.4604492 19.4941813,11.5054118 C19.4968262,11.5741781 19.5417887,11.5688883 19.5867513,11.5979818 Z M19.0842285,9.96346029 C19.0472005,10.0137126 19.020752,10.0533854 19.0921631,10.0930583 C19.1662191,10.1300863 19.2773031,10.2332357 19.2296956,10.3496094 C19.2032471,10.4395345 19.2296956,10.5109456 19.3116862,10.3813477 C19.3963216,10.24646 19.3302002,10.0851237 19.2482096,9.98197428 C19.1767985,9.89204915 19.1291911,9.91056315 19.0842285,9.96346029 Z M21.3111979,8.11735026 C21.4117025,8.20463053 21.4672445,8.17818197 21.4037679,8.03006999 C21.3297119,7.88195801 21.2583008,7.72591146 21.1921794,7.58573405 C21.1207682,7.43762207 21.1022542,7.47200521 21.0202637,7.57779948 C20.9276937,7.68094889 20.9197591,7.7602946 20.9541423,7.8211263 C21.1287028,9.20438639 21.2106934,9.92643229 21.2292074,10.3443197 C21.2662354,10.9526367 21.1101888,11.2938232 20.4886475,11.685262 C20.2876383,11.81486 20.0601807,11.962972 20.5441895,11.8492432 C20.99646,11.740804 21.4804688,11.4551595 21.4804688,10.3628337 C21.4804688,9.5402832 21.2900391,8.6595459 21.3111979,8.11735026 Z M20.570638,7.83699544 C20.515096,7.92427572 20.5256755,7.94278971 20.589152,8.03800456 C20.6526286,8.14379883 20.7081706,8.33422852 20.7081706,8.48234049 C20.7081706,8.63045247 20.7637126,8.61193848 20.7901611,8.47440592 C20.8192546,8.34216309 20.8086751,8.08296712 20.7266846,7.90047201 C20.644694,7.70739746 20.6156006,7.77616374 20.570638,7.83699544 Z M21.1022542,10.7172445 C21.0837402,10.5955811 21.0467122,10.4739176 20.8827311,10.2411702 C20.71875,10.0137126 20.570638,9.80476888 20.4251709,9.60375977 C20.3802083,9.08272298 20.3140869,8.5246582 20.3140869,8.2310791 C20.3881429,8.29984538 20.4436849,8.2310791 20.4066569,8.11735026 C20.3696289,8.00362142 20.2955729,7.69946289 20.2426758,7.56986491 C20.1950684,7.44555664 20.1421712,7.47200521 20.0681152,7.58573405 C20.0046387,7.69946289 19.9596761,7.75236003 20.0046387,7.83699544 C20.0231527,8.34216309 20.0945638,8.83146159 20.1791992,9.27315267 C20.0310872,9.08272298 19.8935547,8.90022786 19.7666016,8.73360189 C19.758667,8.5431722 19.740153,8.35274251 19.7295736,8.15966797 C19.8115641,8.22049967 19.8485921,8.20463053 19.8036296,8.09090169 C19.7666016,7.96923828 19.666097,7.71533203 19.6211344,7.60424805 C19.573527,7.49051921 19.5470785,7.49051921 19.4836019,7.57779948 C19.3830973,7.72591146 19.3540039,7.82906087 19.4386393,7.96923828 C19.4465739,8.09090169 19.4650879,8.22049967 19.4730225,8.33422852 C19.3910319,8.2310791 19.3196208,8.12528483 19.2534993,8.03006999 C19.3354899,8.0723877 19.4016113,8.00362142 19.3090413,7.92427572 C19.2270508,7.84757487 19.0524902,7.71533203 18.9810791,7.62011719 C18.8990885,7.52490234 18.8250326,7.52490234 18.8250326,7.61218262 C18.8250326,7.69946289 18.8329671,7.77616374 18.8250326,7.85550944 C18.8065186,7.92427572 18.8065186,7.99568685 18.9149577,8.11735026 C19.1265462,8.36067708 19.3275553,8.61193848 19.5206299,8.84733073 C19.592041,9.71748861 19.6396484,10.2755534 19.6211344,10.6220296 C19.610555,10.8309733 19.5391439,10.9526367 19.4201253,10.9870199 C19.3011068,11.0319824 19.1820882,10.9526367 19.0710042,10.7965902 C18.8699951,10.5188802 18.798584,10.5717773 18.6425374,10.8151042 C18.4944255,11.039917 18.3939209,11.2329915 18.3119303,11.3969727 C18.2405192,11.5530192 18.1109212,11.6931966 17.9919027,11.4842529 C17.8834635,11.2753092 17.8649495,11.039917 17.8728841,10.8759359 C17.8728841,10.7093099 17.8464355,10.5797119 17.782959,10.8415527 C17.6189779,11.4842529 17.7194824,11.6244303 17.9019775,11.7619629 C18.1294352,11.9550374 18.2034912,11.9709066 18.3225098,11.8069255 C18.5605469,11.4921875 18.6240234,11.2144775 18.761556,11.058431 C18.8699951,10.9367676 18.8699951,11.0319824 18.9255371,11.0928141 C19.0630697,11.2567952 19.1820882,11.317627 19.3725179,11.3440755 C19.5655924,11.3784587 19.9120687,11.2224121 19.8856201,10.6140951 C19.8671061,10.2491048 19.8406576,9.75187174 19.8036296,9.22290039 C19.9861247,9.46622721 20.1501058,9.68310547 20.2797038,9.85766602 C20.3431803,10.2041423 20.3802083,10.5188802 20.3616943,10.7701416 C20.3431803,11.058431 20.4066569,11.058431 20.4701335,10.762207 C20.4886475,10.6405436 20.4886475,10.3866374 20.4621989,10.0824788 C20.7081706,10.3972168 20.8536377,10.6061605 20.9541423,10.7542725 C21.0652262,10.9367676 21.1287028,11.0928141 21.1022542,10.7172445 Z M18.59493,10.0322266 C18.59493,9.97139486 18.6240234,9.95288086 18.7324626,9.86560059 C18.8250326,9.79683431 19.0815837,9.62227376 19.1635742,9.54292806 C19.2455648,9.46622721 19.3090413,9.39481608 19.3275553,9.49267578 C19.3354899,9.58789062 19.3540039,9.62227376 19.2534993,9.6751709 C19.1529948,9.71748861 18.8885091,9.87353516 18.8065186,9.93436686 C18.7139486,10.005778 18.59493,10.0930583 18.59493,10.0322266 Z M18.6240234,8.96105957 C18.6055094,9.04040527 18.4944255,9.04040527 18.5050049,8.953125 C18.5129395,8.86584473 18.5050049,8.88171387 18.5050049,8.81294759 C18.4944255,8.74418132 18.5869954,8.69921875 18.631958,8.76005046 C18.6875,8.82088216 18.78007,9.01395671 18.8065186,9.08272298 C18.8435465,9.15148926 18.8620605,9.13562012 18.8620605,9.04040527 C18.8514811,8.92667643 18.8329671,8.82088216 18.8435465,8.74418132 C18.8514811,8.69921875 18.8805745,8.64632161 18.9334717,8.60400391 C18.9995931,8.5616862 19.0339762,8.55110677 19.0630697,8.63045247 C19.0815837,8.69921875 19.1344808,8.70715332 19.1080322,8.77062988 C19.0710042,8.8552653 18.9890137,8.68334961 18.9334717,8.80501302 C18.9070231,8.89229329 18.9334717,9.13562012 18.9255371,9.22290039 C18.9255371,9.29960124 18.8885091,9.41333008 18.8250326,9.2837321 C18.78007,9.19645182 18.7139486,9.04833984 18.6240234,8.96105957 Z M17.9919027,8.25488281 C18.1215007,8.31571452 18.2590332,8.35274251 18.1585286,8.20463053 C18.0553792,8.06445313 17.9733887,7.82906087 17.9204915,7.65450033 C17.8543701,7.48258464 17.838501,7.49051921 17.7353516,7.63863118 C17.5819499,7.86344401 17.7194824,8.08296712 17.7538656,8.34216309 C17.8834635,9.27315267 18.0104167,10.2226563 18.0474447,10.4739176 C18.0844727,10.7542725 18.1294352,10.9367676 18.0553792,11.2409261 C18.0289307,11.336141 18.0659587,11.3625895 18.1294352,11.2488607 C18.3859863,10.7886556 18.2114258,10.3866374 18.1849772,10.1274414 C18.1400146,9.72542318 17.9919027,8.66483561 17.9654541,8.23901367 M17.3624268,8.2125651 C17.4338379,8.27339681 17.5184733,8.27339681 17.4708659,8.14379883 C17.4259033,8.01155599 17.3888753,7.85550944 17.3439128,7.70739746 C17.2989502,7.55928548 17.2698568,7.52490234 17.2143148,7.59366862 C17.1508382,7.67301432 17.1058757,7.69946289 17.0609131,7.75236003 C17.0133057,7.79467773 17.0053711,7.88989258 17.0609131,7.97717285 C17.2619222,9.29166667 17.2698568,9.87353516 17.2989502,10.3628337 C17.3253988,10.8494873 17.3994548,11.0743001 17.0794271,11.4049072 C16.730306,11.7619629 16.5213623,11.8492432 16.3653158,11.8836263 C16.1907552,11.9312337 16.1193441,12 16.3071289,12 C16.9207357,12 16.9815674,11.8360189 17.2328288,11.5715332 C17.4364827,11.3572998 17.5343424,11.0848796 17.5184733,10.4395345 C17.4999593,9.30753581 17.3333333,8.82088216 17.3624268,8.2125651 Z M15.0666911,11.5371501 C15.1592611,11.4842529 15.2042236,11.4419352 15.2756348,11.4154867 C15.3496908,11.3784587 15.4052327,11.3890381 15.3496908,11.5371501 C15.2941488,11.7090658 15.3232422,11.7619629 15.4422607,11.7196452 C15.5506999,11.685262 15.6141764,11.6402995 15.7067464,11.6059163 C15.788737,11.5715332 15.881307,11.5715332 15.751709,11.666748 C15.6512044,11.7460938 15.5057373,11.8492432 15.4237467,11.8677572 C15.2412516,11.9100749 15.1486816,11.8413086 15.1857096,11.7011312 C15.2227376,11.5715332 15.2491862,11.5186361 15.1407471,11.5635986 C15.0111491,11.6138509 15.0217285,11.5635986 15.0666911,11.5371501 Z M16.5398763,8.57755534 C16.5742594,8.68334961 16.6218669,8.73360189 16.6483154,8.60400391 C16.6668294,8.49027507 16.7038574,8.45589193 16.7223714,8.57755534 C16.74882,8.69921875 16.822876,8.68334961 16.84139,8.56962077 C16.8678385,8.45589193 16.9048665,8.39506022 16.9233805,8.51672363 C16.9418945,8.64632161 16.9313151,8.69128418 16.9128011,8.73360189 C16.9048665,8.77062988 16.8308105,8.81294759 16.7752686,8.76005046 C16.711792,8.70715332 16.693278,8.70715332 16.6483154,8.75211589 C16.5478109,8.83939616 16.5107829,8.77856445 16.4922689,8.65690104 C16.4843343,8.55110677 16.5213623,8.50878906 16.5398763,8.57755534 Z M17.1508382,10.7701416 C17.0688477,10.3787028 16.693278,9.75187174 16.1352132,8.934611 C16.1193441,8.71773275 16.1087646,8.51672363 16.1087646,8.33422852 C16.1907552,8.42150879 16.2462972,8.36861165 16.2198486,8.25488281 C16.1643066,8.05651855 16.0823161,7.88989258 15.9818115,7.66507975 C15.9447835,7.56986491 15.844279,7.54341634 15.7993164,7.68094889 C15.733195,7.84757487 15.7252604,7.88195801 15.807251,7.99568685 C15.7993164,8.11735026 15.844279,8.32629395 15.862793,8.51672363 C15.7622884,8.37654622 15.6326904,8.20463053 15.5321859,8.05651855 C15.6882324,8.11735026 15.7808024,8.0723877 15.6432699,7.93485514 C15.5057373,7.78674316 15.3126628,7.63863118 15.1936442,7.53283691 C15.0746257,7.4296875 15.0217285,7.49845378 15.0402425,7.59366862 C15.0481771,7.69152832 15.0587565,7.7602946 15.0481771,7.83699544 C15.0402425,7.91634115 15.0666911,7.96923828 15.1857096,8.01155599 C15.4237467,8.30777995 15.6617839,8.61193848 15.881307,8.92667643 C15.9077555,9.1858724 15.9632975,9.47416178 15.9897461,9.70955404 C16.0638021,10.264974 16.1722412,10.9870199 16.0823161,11.3017578 C16.0082601,11.5371501 16.0823161,11.6402995 16.2013346,11.2832438 C16.3097738,10.9261882 16.2991943,10.5876465 16.2277832,10.0560303 C16.1986898,9.84973145 16.1907552,9.58789063 16.1643066,9.3445638 C16.5478109,9.90791829 16.8942871,10.4474691 17.0503337,10.8230387 C17.1323242,11.0240479 17.2063802,11.0663656 17.1508382,10.7701416 Z M16.4658203,7.59366862 C16.4287923,7.66507975 16.4023438,7.71533203 16.4737549,7.76822917 C16.5478109,7.8211263 16.6588949,7.96130371 16.6112874,8.11735026 C16.5848389,8.23901367 16.6112874,8.33422852 16.693278,8.15966797 C16.7752686,7.97717285 16.711792,7.7602946 16.6298014,7.62011719 C16.5557454,7.49845378 16.5107829,7.52490234 16.4658203,7.59366862 Z M13.7601318,9.49267578 C13.7416178,9.61433919 13.7680664,9.69104004 13.813029,9.75187174 C13.8606364,9.81270345 13.9505615,9.80476888 13.9796549,9.7360026 C14.0061035,9.6566569 14.0246175,9.64872233 14.0801595,9.70955404 C14.1436361,9.77038574 14.3525798,9.71748861 14.2520752,9.41333008 C14.2071126,9.29166667 14.1885986,9.31811523 14.1885986,9.45564779 C14.1885986,9.6751709 14.1145426,9.6751709 14.0325521,9.46622721 C14.0061035,9.38688151 13.9690755,9.38688151 13.961141,9.49267578 C13.961141,9.69104004 13.868571,9.71748861 13.813029,9.51647949 C13.794515,9.43184408 13.7786458,9.36043294 13.7601318,9.49267578 Z M15.0217285,9.80476888 C15.2121582,9.76245117 15.1037191,9.74393717 14.9741211,9.66459147 C14.8392334,9.58789062 14.7836914,9.58789062 14.791626,9.6751709 C14.8022054,9.72542318 14.8022054,9.77832031 14.8207194,9.84708659 C14.884196,9.83121745 14.9476725,9.82328288 15.0217285,9.80476888 Z M14.6461589,9.37894694 C14.791626,9.17793783 15.0296631,9.23876953 15.3047282,9.42126465 C15.5797933,9.60375977 15.4687093,9.89204915 15.2042236,10.0401611 C15.1407471,10.0745443 15.0587565,10.1089274 14.9556071,10.1433105 C14.9847005,10.2041423 14.9476725,10.2226563 14.865682,10.1697591 C14.6276449,10.2491048 14.3155518,10.3628337 14.0986735,10.4739176 C14.3631592,10.4924316 15.4607747,10.4739176 15.6802979,10.4474691 C15.899821,10.4315999 15.862793,10.4659831 15.7993164,10.6484782 C15.733195,10.8230387 15.6617839,10.8045247 15.4792887,10.8309733 C15.1857096,10.8838704 14.754598,11.0055339 14.4451497,11.1271973 C14.1330566,11.2488607 14.2441406,11.4657389 14.5641683,11.5794678 C14.81014,11.6402995 14.7836914,11.666748 14.7387288,11.8069255 C14.7017008,11.9365234 14.7017008,11.9709066 14.4001872,11.9285889 C13.6596273,11.81486 13.3924967,11.4234212 13.2734782,11.1192627 C12.8185628,11.7355143 12.3689372,12.0767008 11.9484049,11.9709066 C11.7394613,11.9285889 11.6389567,11.7460938 11.6204427,11.5186361 C11.3268636,11.648234 10.9883219,11.7619629 10.5492757,11.8836263 C10.4487712,11.9180094 10.3667806,11.8756917 10.5043132,11.81486 C10.7952474,11.6746826 11.2528076,11.4419352 11.6283773,11.188029 C11.6654053,11.0319824 11.7473958,10.8151042 11.8293864,10.6564128 C11.874349,10.5611979 11.9034424,10.5955811 11.9034424,10.6749268 C11.9034424,10.7357585 11.8849284,10.891805 11.892863,11.0055339 C11.9589844,10.9526367 12.0489095,10.9023844 12.0938721,10.8574219 C12.3504232,10.6405436 12.6334229,10.5003662 12.4429932,10.15389 C12.3610026,9.99519857 12.2948812,9.88411458 12.2684326,9.81270345 C12.1044515,9.75187174 12.1494141,9.66459147 12.2234701,9.51647949 C12.2948812,9.37101237 12.3239746,9.33398438 12.4694417,9.50061035 C12.6810303,9.7360026 12.7074788,9.83915202 12.5620117,9.82328288 C12.7894694,10.3787028 12.7339274,10.6669922 12.3795166,10.9975993 C12.2128906,11.1615804 12.0409749,11.2938232 11.8399658,11.3969727 C11.8214518,11.5450846 11.8849284,11.6931966 12.1758626,11.648234 C12.5620117,11.5979818 12.9904785,11.1192627 13.1729736,10.7542725 C13.0909831,10.4474691 12.908488,9.89998372 12.8000488,9.62227376 C12.7445068,9.48209635 12.8000488,9.42126465 12.8450114,9.30753581 C12.9005534,9.19645182 12.927002,9.12504069 12.9904785,9.2837321 C13.0539551,9.43184408 13.2549642,9.80476888 13.3475342,10.2491048 C13.4480387,10.6934408 13.4295247,11.0743001 13.6675618,11.2832438 C13.7786458,11.3784587 13.9135335,11.4419352 14.0616455,11.4763184 C13.9505615,11.1800944 14.1806641,10.9526367 14.4821777,10.8494873 C14.2996826,10.6828613 14.0140381,10.7093099 13.6940104,10.6934408 C13.4586182,10.6828613 13.4850667,10.6564128 13.5485433,10.4580485 C13.6120199,10.2570394 13.6860758,10.2305908 13.8606364,10.1618245 C14.0986735,10.0745443 14.3340658,9.987264 14.5826823,9.91849772 C14.4266357,9.70161947 14.5271403,9.54292806 14.6461589,9.37894694 Z M13.4930013,7.59366862 C13.4295247,7.65450033 13.4295247,7.66507975 13.4850667,7.7417806 C13.5406087,7.8026123 13.6225993,7.99568685 13.5935059,8.19405111 C13.5855713,8.28133138 13.6040853,8.36861165 13.6490479,8.2125651 C13.6860758,8.05651855 13.6754964,7.83699544 13.6305339,7.70739746 C13.5855713,7.57779948 13.5300293,7.54341634 13.4930013,7.59366862 Z M12.2499186,7.93485514 C12.1044515,8.32629395 12.1123861,8.69921875 12.4138997,9.02189128 C12.5884603,9.20438639 12.7154134,9.11710612 12.7894694,8.91609701 C12.87146,8.72566732 12.927002,8.53523763 12.9825439,8.40299479 C13.0354411,8.27339681 13.0830485,8.29984538 13.0724691,8.42150879 C13.0460205,8.66483561 13.0275065,9.05627441 13.2840576,9.20438639 C13.5406087,9.35249837 13.9320475,9.10123698 14.0695801,8.83939616 C14.4821777,9.36043294 14.847168,9.11710612 14.8921305,8.61193848 C14.90271,8.45589193 14.828654,8.11735026 14.7836914,8.02213542 C14.7387288,7.91634115 14.7651774,7.91634115 14.828654,7.96923828 C14.8921305,8.03006999 15.0032145,8.06445312 14.9476725,7.88989258 C14.884196,7.72591146 14.81014,7.63069661 14.7096354,7.55135091 C14.6197103,7.47200521 14.6011963,7.51696777 14.5641683,7.57779948 C14.5271403,7.63863118 14.5350749,7.65450033 14.4821777,7.69946289 C14.4266357,7.75236003 14.4345703,7.77616374 14.4821777,7.87402344 C14.6355794,8.25488281 14.7836914,8.81294759 14.5350749,8.86584473 C14.3076172,8.90816243 14.1621501,8.43737793 14.1515706,8.2310791 C14.1436361,7.95072428 14.1066081,7.71533203 14.0510661,7.56986491 C14.0113932,7.47465007 13.9875895,7.4296875 13.9664307,7.4296875 C13.9294027,7.4296875 13.8765055,7.58044434 13.8421224,7.63863118 C13.8050944,7.69946289 13.8421224,7.71533203 13.868571,7.83699544 C14.0061035,8.44795736 13.9875895,8.72566732 13.6940104,8.88171387 C13.4030762,9.04833984 13.2470296,8.89229329 13.2470296,8.69921875 C13.2390951,8.50878906 13.2390951,8.27339681 13.2655436,8.09883626 C13.2840576,7.92427572 13.3290202,7.90047201 13.2655436,7.81319173 C13.2020671,7.71533203 13.1465251,7.75236003 13.0645345,7.86344401 C12.8820394,8.10677083 12.6995443,8.51672363 12.6334229,8.70715332 C12.5699463,8.90816243 12.4429932,8.83939616 12.3504232,8.67277018 C12.2499186,8.47440592 12.260498,8.11735026 12.2948812,7.97717285 C12.3319092,7.83699544 12.3133952,7.77616374 12.2499186,7.93485514 Z M11.91622,7.78674316 C11.9438499,7.73384603 11.8767488,7.68094889 11.8214891,7.7602946 C11.7820179,7.8211263 11.7662294,7.86344401 11.849119,7.90047201 C11.8767488,7.86344401 11.9043787,7.8211263 11.91622,7.78674316 Z M11.6548258,7.70739746 C11.7659098,7.43762207 12.1309001,7.47200521 12.0303955,7.8211263 C12.0224609,7.87402344 11.9933675,7.94278971 11.9589844,8.01155599 C12.0118815,8.08296712 11.9854329,8.1702474 11.874349,8.1517334 C11.7553304,8.33422852 11.5278727,8.53523763 11.1337891,8.69921875 C10.9512939,8.77856445 10.9248454,8.71773275 11.0623779,8.63838704 C11.3268636,8.47440592 11.5728353,8.27339681 11.7288818,8.06445313 C11.6098633,7.96923828 11.6098633,7.82906087 11.6548258,7.70739746 Z M11.5913493,8.67277018 C11.4829102,8.80501302 11.4009196,8.99544271 11.5543213,9.10917155 C11.6389567,9.17793783 11.8108724,9.10123698 11.874349,8.96899414 C11.9404704,8.83146159 11.911377,8.81294759 11.8029378,8.92667643 C11.6468913,9.09065755 11.4908447,8.94254557 11.6548258,8.71773275 C11.7659098,8.5616862 11.7024333,8.5246582 11.5913493,8.67277018 Z M11.3453776,10.5876465 C11.3638916,10.6484782 11.3533122,10.7886556 11.3268636,10.8494873 C11.2898356,10.9261882 11.3268636,10.9632161 11.3824056,10.8653564 C11.4353027,10.762207 11.4723307,10.6405436 11.4458822,10.5188802 C11.4353027,10.4315999 11.4353027,10.4051514 11.3533122,10.3707682 C11.263387,10.3363851 11.2342936,10.3866374 11.2078451,10.4580485 C11.1708171,10.5453288 11.2157796,10.6405436 11.3453776,10.5876465 Z M9.93566895,10.0137126 C9.77168783,10.0560303 9.74523926,9.99519857 9.75317383,9.89998372 C9.76375326,9.80476888 9.77168783,9.77832031 9.88277181,9.82328288 C9.92773438,9.83915202 9.98327637,9.89998372 10.0388184,9.97932943 C10.0017904,9.987264 9.96476237,10.005778 9.93566895,10.0137126 Z M10.0732015,9.62227376 C9.90922038,9.46622721 9.77168783,9.45564779 9.63415527,9.64872233 C9.50720215,9.83121745 9.51513672,9.87353516 9.52571615,10.0401611 C9.53365072,10.2041423 9.49926758,10.264974 9.63415527,10.3099365 C9.76375326,10.3522542 9.81929525,10.3363851 9.90128581,10.3099365 C9.96476237,10.2914225 10.0546875,10.264974 10.1472575,10.2305908 C10.1657715,10.3178711 10.1551921,10.4130859 10.1022949,10.4844971 C9.76375326,10.8653564 9.24271647,11.1457113 9.01261393,10.891805 C8.88566081,10.7542725 8.83011882,10.5347493 8.86714681,10.2755534 C8.9041748,10.0560303 8.83011882,10.15389 8.80367025,10.2305908 C8.72167969,10.4844971 8.69258626,10.8494873 8.80367025,11.0319824 C8.9597168,11.2832438 9.20568848,11.3969727 9.59977214,11.2329915 C9.99121094,11.0663656 10.3747152,10.7701416 10.358846,10.3628337 C10.358846,10.283488 10.3482666,10.2147217 10.3482666,10.1618245 C10.3852946,10.1433105 10.4487712,10.1009928 10.4937337,10.0824788 C10.5043132,10.2226563 10.4857992,10.3972168 10.4937337,10.5347493 C10.5122477,10.9790853 10.3297526,11.1086833 10.1657715,11.2329915 C9.93566895,11.4049072 9.6262207,11.5186361 9.36173503,11.5635986 C8.72961426,11.648234 8.58414714,11.2673747 8.59208171,10.7542725 C8.59208171,10.6749268 8.6291097,10.6220296 8.6291097,10.5083008 C8.62117513,10.2914225 8.59208171,10.3258057 8.52067057,10.5453288 C8.45454915,10.7542725 8.37255859,11.2409261 8.58414714,11.6402995 C8.80367025,12.0423177 9.54423014,11.9285889 10.1208089,11.666748 C10.6868083,11.4049072 10.7502848,10.910319 10.7238363,10.4130859 C10.7238363,10.283488 10.7132568,10.1433105 10.7053223,9.99519857 C10.7238363,9.987264 10.7317708,9.97139486 10.7423503,9.96081543 C10.8243408,10.2147217 11.2078451,10.1433105 11.3268636,9.99519857 C11.3903402,9.92643229 11.3903402,9.91849772 11.4458822,9.99519857 C11.5278727,10.1089274 11.8108724,10.1433105 11.8849284,9.987264 C11.9484049,9.82328288 11.9404704,9.66459147 11.9219564,9.54292806 C11.9034424,9.42126465 11.874349,9.43184408 11.7923584,9.49267578 C11.7024333,9.56144206 11.7738444,9.56937663 11.7844238,9.6566569 C11.8214518,9.987264 11.5199382,9.96081543 11.4829102,9.62227376 C11.4643962,9.41333008 11.4273682,9.49267578 11.4009196,9.58789063 C11.2713216,9.99519857 10.895752,10.0745443 10.9327799,9.60375977 C10.9433594,9.46622721 10.8507894,9.50854492 10.8058268,9.56144206 C10.7608643,9.5958252 10.7238363,9.64078776 10.6788737,9.66459147 C10.6497803,9.2837321 10.6233317,8.84733073 10.5757243,8.32629395 C10.6868083,8.45589193 10.7873128,8.30777995 10.7132568,8.15966797 C10.6603597,8.04593913 10.5757243,7.79467773 10.5228271,7.65450033 C10.4752197,7.51696777 10.4487712,7.55928548 10.3297526,7.67301432 C10.2213135,7.79467773 10.2398275,7.8211263 10.2927246,7.94278971 C10.2742106,8.09090169 10.303304,8.23901367 10.340332,8.5431722 C10.3667806,8.76005046 10.4408366,9.21232096 10.4752197,9.78625488 C10.4223226,9.81270345 10.340332,9.86560059 10.28479,9.89204915 C10.2398275,9.79683431 10.1737061,9.71748861 10.0732015,9.62227376 Z M8.10807292,10.7278239 C8.11600749,10.8151042 8.11600749,10.8759359 8.11600749,10.910319 C8.11600749,10.9711507 8.08162435,11.0319824 8.06311035,11.1086833 C7.95202637,11.4842529 8.11600749,11.666748 8.20857747,11.5265706 C8.29056803,11.3890381 8.3355306,11.4049072 8.32759603,11.5186361 C8.31966146,11.8942057 7.9440918,11.9180094 7.91499837,11.6059163 C7.87003581,11.1086833 7.98905436,11.0319824 8.02608236,10.8653564 C8.05253092,10.7542725 8.08955892,10.6669922 8.10807292,10.7278239 Z M7.91499837,10.1776937 C8.18212891,9.87353516 8.52067057,9.71748861 8.69258626,9.66459147 C8.80367025,9.63020833 8.85921224,9.58789062 8.85921224,9.69104004 C8.86714681,9.78625488 8.85921224,9.79683431 8.76664225,9.82328288 C8.55505371,9.87353516 8.11600749,10.0824788 7.97054036,10.1882731 C7.89912923,10.2411702 7.80655924,10.302002 7.91499837,10.1776937 Z M9.40669759,7.55928548 C9.38024902,7.63069661 9.39876302,7.71533203 9.44372559,7.76822917 C9.48868815,7.82906087 9.57067871,7.82906087 9.6262207,7.78674316 C9.67118327,7.73384603 9.67118327,7.72591146 9.71879069,7.79467773 C9.74523926,7.84757487 9.83516439,7.82906087 9.86425781,7.77616374 C9.88277181,7.73384603 9.90922038,7.69152832 9.88277181,7.63069661 C9.85367839,7.56986491 9.85367839,7.58573405 9.83516439,7.65450033 C9.81929525,7.76822917 9.70821126,7.7417806 9.70027669,7.60424805 C9.70027669,7.47200521 9.67118327,7.54341634 9.63415527,7.63069661 C9.57067871,7.7602946 9.48075358,7.73384603 9.48075358,7.62011719 C9.48075358,7.52490234 9.45166016,7.44555664 9.40669759,7.55928548 Z M9.01261393,9.38688151 C9.04170736,9.70161947 9.13163249,10.283488 9.13163249,10.4844971 C9.14221191,10.6934408 9.16866048,10.632609 9.22420247,10.5188802 C9.27974447,10.4051514 9.26916504,10.283488 9.26123047,10.116862 C9.24271647,9.94494629 9.23213704,9.6566569 9.19510905,9.2652181 C9.26916504,9.21232096 9.3326416,9.12504069 9.36173503,9.07478841 C9.43314616,8.94254557 9.45166016,8.953125 9.48075358,9.05627441 C9.53365072,9.2652181 9.75317383,9.40539551 10.0467529,9.20438639 C10.321818,9.02189128 10.2027995,8.63838704 10.0837809,8.22049967 C10.1842855,8.23901367 10.2213135,8.15966797 10.1551921,8.05651855 C10.1287435,7.99568685 10.0732015,7.94278971 10.0282389,7.88989258 C9.98327637,7.83699544 9.93566895,7.79467773 9.89070638,7.84757487 C9.85367839,7.90047201 9.80871582,7.94278971 9.78226725,7.97717285 C9.75317383,8.01155599 9.75317383,8.04593913 9.79020182,8.1332194 C9.90128581,8.37654622 9.97269694,8.63838704 9.99121094,8.78649902 C10.0203044,8.92667643 9.96476237,8.96105957 9.86425781,8.96105957 C9.76375326,8.96105957 9.6262207,8.934611 9.57067871,8.72566732 C9.51513672,8.51672363 9.48868815,8.42150879 9.49926758,8.28133138 C9.50720215,8.14379883 9.52571615,8.04593913 9.42521159,7.90840658 C9.3141276,7.76822917 9.30619303,7.79467773 9.27974447,7.86344401 C9.26123047,7.94278971 9.22420247,8.05651855 9.26123047,8.18611654 C9.30619303,8.37654622 9.3326416,8.5431722 9.36173503,8.65690104 C9.38024902,8.73360189 9.29561361,8.90022786 9.17923991,8.98750814 C9.15014648,8.72566732 9.10518392,8.37654622 9.08666992,8.09883626 C9.24271647,8.04593913 9.16072591,7.84757487 9.03112793,7.63069661 C8.9412028,7.46407064 8.9041748,7.53283691 8.84069824,7.63863118 C8.77457682,7.7417806 8.82218424,7.78674316 8.86714681,7.87402344 C8.83011882,7.94278971 8.89359538,8.04593913 8.9226888,8.23901367 C8.93062337,8.36067708 8.9597168,8.70715332 8.98616536,9.01395671 C8.85921224,9.01395671 8.78515625,8.934611 8.74019368,8.83146159 C8.63968913,8.61193848 8.6661377,8.41357422 8.71110026,8.28133138 C8.75870768,8.1517334 8.80367025,7.95072428 8.72167969,7.90047201 C8.6476237,7.84757487 8.54711914,7.90840658 8.48364258,8.00362142 C8.37255859,8.15966797 8.27205404,8.38712565 8.26411947,8.6225179 C8.25354004,8.71773275 8.22709147,8.90022786 8.18212891,8.96899414 C8.14510091,9.04040527 8.08162435,9.04833984 8.01550293,8.94254557 C7.9070638,8.77856445 7.87003581,8.36067708 7.88061523,8.14379883 C7.88061523,8.03800456 7.85152181,8.02213542 7.81449382,8.14379883 C7.78275553,8.25488281 7.76953125,8.36861165 7.76953125,8.47705078 C7.76953125,8.78385417 7.85945638,9.06420898 7.93351237,9.20438639 C8.03401693,9.39481608 8.16361491,9.35249837 8.25354004,9.19645182 C8.39107259,8.96105957 8.3355306,8.75211589 8.46512858,8.40299479 C8.53918457,8.18611654 8.56563314,8.35274251 8.53918457,8.48234049 C8.47306315,8.83146159 8.49157715,9.39481608 9.01261393,9.38688151 Z M8.22709147,8.02213542 C8.31966146,7.77616374 8.32759603,7.55928548 8.2191569,7.63863118 C8.12658691,7.70739746 8.07104492,7.63863118 8.14510091,7.55928548 C8.23502604,7.44555664 8.3540446,7.4111735 8.38313802,7.60424805 C8.39107259,7.75236003 8.28263346,7.93485514 8.22709147,8.02213542 Z" id="Shape" fill="#FFFFFF"></path>
                </g>
            </g>
            <mask id="mask-5" fill="white">
                <use xlink:href="#path-4"></use>
            </mask>
            <circle stroke="#FFFFFF" stroke-width="1.125" cx="12" cy="12" r="11.4375"></circle>
        </g>
    </g>
</svg>